<svg xmlns="http://www.w3.org/2000/svg" viewBox="0 0 100 100" fill="none">
  <circle cx="50" cy="50" r="48" fill="#FFFFFF" stroke="#000000" stroke-width="4"/>
  <circle cx="50" cy="50" r="10" fill="#FFFF00"/>
  <g stroke="#000000" stroke-width="2">
    <line x1="50" y1="40" x2="50" y2="20"/>
    <line x1="50" y1="60" x2="50" y2="80"/>
    <line x1="40" y1="50" x2="20" y2="50"/>
    <line x1="60" y1="50" x2="80" y2="50"/>
    <line x1="43" y1="43" x2="28" y2="28"/>
    <line x1="57" y1="43" x2="72" y2="28"/>
    <line x1="43" y1="57" x2="28" y2="72"/>
    <line x1="57" y1="57" x2="72" y2="72"/>
  </g>
  <circle cx="50" cy="20" r="4" fill="#000000"/>
  <circle cx="50" cy="80" r="4" fill="#000000"/>
  <circle cx="20" cy="50" r="4" fill="#000000"/>
  <circle cx="80" cy="50" r="4" fill="#000000"/>
  <circle cx="28" cy="28" r="4" fill="#000000"/>
  <circle cx="72" cy="28" r="4" fill="#000000"/>
  <circle cx="28" cy="72" r="4" fill="#000000"/>
  <circle cx="72" cy="72" r="4" fill="#000000"/>
</svg>
